<mxfile host="app.diagrams.net" agent="Mozilla/5.0 (Windows NT 10.0; Win64; x64) AppleWebKit/537.36 (KHTML, like Gecko) Chrome/136.0.0.0 Safari/537.36 Edg/136.0.0.0" version="27.0.4">
  <diagram name="第 1 页" id="DPDLxRhq4WZPaVKxyE2U">
    <mxGraphModel dx="805" dy="608" grid="1" gridSize="10" guides="1" tooltips="1" connect="1" arrows="1" fold="1" page="1" pageScale="1" pageWidth="827" pageHeight="1169" math="0" shadow="0">
      <root>
        <mxCell id="0" />
        <mxCell id="1" parent="0" />
        <mxCell id="SAsirNLkoHUq3iL9kauJ-1" value="&lt;font style=&quot;font-size: 16px;&quot;&gt;产品1&lt;/font&gt;" style="rounded=0;whiteSpace=wrap;html=1;" vertex="1" parent="1">
          <mxGeometry x="120" y="90" width="70" height="60" as="geometry" />
        </mxCell>
        <mxCell id="SAsirNLkoHUq3iL9kauJ-3" value="&lt;font style=&quot;font-size: 16px;&quot;&gt;消费组1&lt;/font&gt;" style="rounded=0;whiteSpace=wrap;html=1;" vertex="1" parent="1">
          <mxGeometry x="280" y="65" width="60" height="110" as="geometry" />
        </mxCell>
        <mxCell id="SAsirNLkoHUq3iL9kauJ-5" value="&lt;font style=&quot;font-size: 16px;&quot;&gt;订阅1&lt;/font&gt;" style="rounded=0;whiteSpace=wrap;html=1;" vertex="1" parent="1">
          <mxGeometry x="420" y="65" width="60" height="110" as="geometry" />
        </mxCell>
        <mxCell id="SAsirNLkoHUq3iL9kauJ-7" value="&lt;font style=&quot;font-size: 16px;&quot;&gt;服务器1&lt;/font&gt;" style="rounded=0;whiteSpace=wrap;html=1;" vertex="1" parent="1">
          <mxGeometry x="550" y="90" width="120" height="60" as="geometry" />
        </mxCell>
        <mxCell id="SAsirNLkoHUq3iL9kauJ-9" value="" style="endArrow=classic;html=1;rounded=0;exitX=1;exitY=0.5;exitDx=0;exitDy=0;" edge="1" parent="1" source="SAsirNLkoHUq3iL9kauJ-1" target="SAsirNLkoHUq3iL9kauJ-3">
          <mxGeometry width="50" height="50" relative="1" as="geometry">
            <mxPoint x="390" y="320" as="sourcePoint" />
            <mxPoint x="440" y="270" as="targetPoint" />
          </mxGeometry>
        </mxCell>
        <mxCell id="SAsirNLkoHUq3iL9kauJ-12" value="&lt;font style=&quot;font-size: 16px;&quot;&gt;产品订阅关系&lt;/font&gt;" style="text;html=1;align=center;verticalAlign=middle;whiteSpace=wrap;rounded=0;" vertex="1" parent="1">
          <mxGeometry x="200" y="82" width="70" height="30" as="geometry" />
        </mxCell>
        <mxCell id="SAsirNLkoHUq3iL9kauJ-14" value="" style="endArrow=classic;html=1;rounded=0;" edge="1" parent="1">
          <mxGeometry width="50" height="50" relative="1" as="geometry">
            <mxPoint x="340" y="119.5" as="sourcePoint" />
            <mxPoint x="420" y="119.5" as="targetPoint" />
          </mxGeometry>
        </mxCell>
        <mxCell id="SAsirNLkoHUq3iL9kauJ-15" value="" style="endArrow=classic;html=1;rounded=0;entryX=0;entryY=0.5;entryDx=0;entryDy=0;" edge="1" parent="1" target="SAsirNLkoHUq3iL9kauJ-7">
          <mxGeometry width="50" height="50" relative="1" as="geometry">
            <mxPoint x="480" y="119.5" as="sourcePoint" />
            <mxPoint x="540" y="120" as="targetPoint" />
          </mxGeometry>
        </mxCell>
        <mxCell id="SAsirNLkoHUq3iL9kauJ-16" value="&lt;font style=&quot;font-size: 16px;&quot;&gt;消费组&lt;/font&gt;&lt;div&gt;&lt;font style=&quot;font-size: 16px;&quot;&gt;订阅关系&lt;/font&gt;&lt;/div&gt;" style="text;html=1;align=center;verticalAlign=middle;whiteSpace=wrap;rounded=0;" vertex="1" parent="1">
          <mxGeometry x="320" y="62" width="116.5" height="65" as="geometry" />
        </mxCell>
        <mxCell id="SAsirNLkoHUq3iL9kauJ-17" value="&lt;font style=&quot;font-size: 16px;&quot;&gt;获取&lt;/font&gt;&lt;div&gt;&lt;font style=&quot;font-size: 16px;&quot;&gt;数据&lt;/font&gt;&lt;/div&gt;" style="text;html=1;align=center;verticalAlign=middle;whiteSpace=wrap;rounded=0;" vertex="1" parent="1">
          <mxGeometry x="482" y="80.5" width="60" height="30" as="geometry" />
        </mxCell>
      </root>
    </mxGraphModel>
  </diagram>
</mxfile>
